<svg id="visual" viewBox="0 0 900 600" width="900" height="600" xmlns="http://www.w3.org/2000/svg" xmlns:xlink="http://www.w3.org/1999/xlink" version="1.1"><rect x="0" y="0" width="900" height="600" fill="#1D4ED8"></rect><path d="M417 0L486 0L486 35L664 35L664 71L575 71L575 106L686 106L686 141L689 141L689 176L538 176L538 212L654 212L654 247L710 247L710 282L586 282L586 318L475 318L475 353L561 353L561 388L631 388L631 424L637 424L637 459L727 459L727 494L515 494L515 529L628 529L628 565L548 565L548 600L0 600L0 565L0 565L0 529L0 529L0 494L0 494L0 459L0 459L0 424L0 424L0 388L0 388L0 353L0 353L0 318L0 318L0 282L0 282L0 247L0 247L0 212L0 212L0 176L0 176L0 141L0 141L0 106L0 106L0 71L0 71L0 35L0 35L0 0L0 0Z" fill="#1663eb"></path><path d="M597 0L321 0L321 35L477 35L477 71L352 71L352 106L337 106L337 141L439 141L439 176L360 176L360 212L542 212L542 247L348 247L348 282L542 282L542 318L515 318L515 353L459 353L459 388L459 388L459 424L405 424L405 459L359 459L359 494L349 494L349 529L577 529L577 565L454 565L454 600L0 600L0 565L0 565L0 529L0 529L0 494L0 494L0 459L0 459L0 424L0 424L0 388L0 388L0 353L0 353L0 318L0 318L0 282L0 282L0 247L0 247L0 212L0 212L0 176L0 176L0 141L0 141L0 106L0 106L0 71L0 71L0 35L0 35L0 0L0 0Z" fill="#005dc6"></path><path d="M375 0L315 0L315 35L460 35L460 71L320 71L320 106L367 106L367 141L374 141L374 176L367 176L367 212L243 212L243 247L359 247L359 282L255 282L255 318L320 318L320 353L352 353L352 388L452 388L452 424L310 424L310 459L291 459L291 494L476 494L476 529L404 529L404 565L269 565L269 600L0 600L0 565L0 565L0 529L0 529L0 494L0 494L0 459L0 459L0 424L0 424L0 388L0 388L0 353L0 353L0 318L0 318L0 282L0 282L0 247L0 247L0 212L0 212L0 176L0 176L0 141L0 141L0 106L0 106L0 71L0 71L0 35L0 35L0 0L0 0Z" fill="#1255a0"></path><path d="M257 0L134 0L134 35L346 35L346 71L165 71L165 106L312 106L312 141L223 141L223 176L179 176L179 212L292 212L292 247L190 247L190 282L257 282L257 318L271 318L271 353L295 353L295 388L132 388L132 424L212 424L212 459L308 459L308 494L355 494L355 529L204 529L204 565L213 565L213 600L0 600L0 565L0 565L0 529L0 529L0 494L0 494L0 459L0 459L0 424L0 424L0 388L0 388L0 353L0 353L0 318L0 318L0 282L0 282L0 247L0 247L0 212L0 212L0 176L0 176L0 141L0 141L0 106L0 106L0 71L0 71L0 35L0 35L0 0L0 0Z" fill="#274c7a"></path><path d="M162 0L100 0L100 35L178 35L178 71L175 71L175 106L147 106L147 141L112 141L112 176L68 176L68 212L161 212L161 247L223 247L223 282L124 282L124 318L70 318L70 353L176 353L176 388L130 388L130 424L158 424L158 459L151 459L151 494L187 494L187 529L46 529L46 565L61 565L61 600L0 600L0 565L0 565L0 529L0 529L0 494L0 494L0 459L0 459L0 424L0 424L0 388L0 388L0 353L0 353L0 318L0 318L0 282L0 282L0 247L0 247L0 212L0 212L0 176L0 176L0 141L0 141L0 106L0 106L0 71L0 71L0 35L0 35L0 0L0 0Z" fill="#334155"></path></svg>