<svg id="visual" viewBox="0 0 900 600" width="900" height="600" xmlns="http://www.w3.org/2000/svg" xmlns:xlink="http://www.w3.org/1999/xlink" version="1.1"><g strokeWidth="1" strokeLinejoin="bevel"><path d="M459.6 274.7L505.8 237L467.4 243.7Z" fill="#1d4ed8" stroke="#1d4ed8"></path><path d="M459.6 274.7L482.6 308.3L505.8 237Z" fill="#004fb3" stroke="#004fb3"></path><path d="M482.6 308.3L544.8 296.3L505.8 237Z" fill="#1f497e" stroke="#1f497e"></path><path d="M603.1 233L511.6 189L505.8 237Z" fill="#024fcc" stroke="#024fcc"></path><path d="M505.8 237L511.6 189L467.4 243.7Z" fill="#2e4462" stroke="#2e4462"></path><path d="M511.6 189L455.6 170.3L467.4 243.7Z" fill="#004fc0" stroke="#004fc0"></path><path d="M467.4 243.7L375.4 181L459.6 274.7Z" fill="#024fcc" stroke="#024fcc"></path><path d="M544.8 296.3L603.1 233L505.8 237Z" fill="#004ea6" stroke="#004ea6"></path><path d="M482.6 308.3L557.8 357L544.8 296.3Z" fill="#334155" stroke="#334155"></path><path d="M544.8 296.3L607.1 331.3L600.8 279.7Z" fill="#2e4462" stroke="#2e4462"></path><path d="M600.8 279.7L603.1 233L544.8 296.3Z" fill="#2e4462" stroke="#2e4462"></path><path d="M340.2 343.3L430.4 367.3L459.6 274.7Z" fill="#274770" stroke="#274770"></path><path d="M459.6 274.7L430.4 367.3L482.6 308.3Z" fill="#2e4462" stroke="#2e4462"></path><path d="M482.6 308.3L522.6 398L557.8 357Z" fill="#134b8b" stroke="#134b8b"></path><path d="M557.8 357L607.1 331.3L544.8 296.3Z" fill="#2e4462" stroke="#2e4462"></path><path d="M600.8 279.7L640.1 232.7L603.1 233Z" fill="#004fc0" stroke="#004fc0"></path><path d="M430.4 367.3L522.6 398L482.6 308.3Z" fill="#1f497e" stroke="#1f497e"></path><path d="M557.8 357L647.3 343.3L607.1 331.3Z" fill="#004fb3" stroke="#004fb3"></path><path d="M490.6 88.7L422.4 148.3L455.6 170.3Z" fill="#274770" stroke="#274770"></path><path d="M455.6 170.3L375.4 181L467.4 243.7Z" fill="#2e4462" stroke="#2e4462"></path><path d="M422.4 148.3L375.4 181L455.6 170.3Z" fill="#004fb3" stroke="#004fb3"></path><path d="M430.4 367.3L462.4 412L522.6 398Z" fill="#2e4462" stroke="#2e4462"></path><path d="M668.3 285.7L640.1 232.7L600.8 279.7Z" fill="#024d99" stroke="#024d99"></path><path d="M583.1 125.3L518.8 101.3L511.6 189Z" fill="#004fb3" stroke="#004fb3"></path><path d="M511.6 189L518.8 101.3L455.6 170.3Z" fill="#004fc0" stroke="#004fc0"></path><path d="M462.4 412L509.6 422.7L522.6 398Z" fill="#024fcc" stroke="#024fcc"></path><path d="M693.3 381L647.3 343.3L674.1 452Z" fill="#024d99" stroke="#024d99"></path><path d="M375.4 181L325.2 263.7L459.6 274.7Z" fill="#334155" stroke="#334155"></path><path d="M430.4 367.3L389.2 420L462.4 412Z" fill="#1d4ed8" stroke="#1d4ed8"></path><path d="M583.1 125.3L511.6 189L603.1 233Z" fill="#134b8b" stroke="#134b8b"></path><path d="M639.3 184L583.1 125.3L603.1 233Z" fill="#004fb3" stroke="#004fb3"></path><path d="M640.1 232.7L639.3 184L603.1 233Z" fill="#004ea6" stroke="#004ea6"></path><path d="M325.2 263.7L340.2 343.3L459.6 274.7Z" fill="#004fc0" stroke="#004fc0"></path><path d="M375.4 181L327.2 211L325.2 263.7Z" fill="#334155" stroke="#334155"></path><path d="M317.2 140.3L327.2 211L375.4 181Z" fill="#024d99" stroke="#024d99"></path><path d="M647.3 343.3L557.8 357L674.1 452Z" fill="#1f497e" stroke="#1f497e"></path><path d="M607.1 331.3L668.3 285.7L600.8 279.7Z" fill="#334155" stroke="#334155"></path><path d="M640.1 232.7L708.5 163L639.3 184Z" fill="#004fb3" stroke="#004fb3"></path><path d="M549.8 67.7L490.6 88.7L518.8 101.3Z" fill="#274770" stroke="#274770"></path><path d="M518.8 101.3L490.6 88.7L455.6 170.3Z" fill="#274770" stroke="#274770"></path><path d="M422.4 148.3L317.2 140.3L375.4 181Z" fill="#024d99" stroke="#024d99"></path><path d="M647.3 343.3L668.3 285.7L607.1 331.3Z" fill="#2e4462" stroke="#2e4462"></path><path d="M212.7 282.7L314.9 312.7L325.2 263.7Z" fill="#004ea6" stroke="#004ea6"></path><path d="M325.2 263.7L314.9 312.7L340.2 343.3Z" fill="#024d99" stroke="#024d99"></path><path d="M374.2 447.7L389.2 420L320.9 462.7Z" fill="#1d4ed8" stroke="#1d4ed8"></path><path d="M340.2 343.3L389.2 420L430.4 367.3Z" fill="#004fc0" stroke="#004fc0"></path><path d="M462.4 412L500.8 458.7L509.6 422.7Z" fill="#274770" stroke="#274770"></path><path d="M458.4 515.7L500.8 458.7L462.4 412Z" fill="#024d99" stroke="#024d99"></path><path d="M576.8 499.3L557.8 357L522.6 398Z" fill="#004fb3" stroke="#004fb3"></path><path d="M572.1 36.7L549.8 67.7L583.1 125.3Z" fill="#024fcc" stroke="#024fcc"></path><path d="M583.1 125.3L549.8 67.7L518.8 101.3Z" fill="#334155" stroke="#334155"></path><path d="M417.4 41.7L422.4 148.3L490.6 88.7Z" fill="#2e4462" stroke="#2e4462"></path><path d="M323.2 55.7L317.2 140.3L422.4 148.3Z" fill="#334155" stroke="#334155"></path><path d="M327.2 211L263.9 202L325.2 263.7Z" fill="#134b8b" stroke="#134b8b"></path><path d="M276.9 377.3L389.2 420L340.2 343.3Z" fill="#024fcc" stroke="#024fcc"></path><path d="M389.2 420L374.2 447.7L462.4 412Z" fill="#1f497e" stroke="#1f497e"></path><path d="M576.8 499.3L522.6 398L509.6 422.7Z" fill="#024fcc" stroke="#024fcc"></path><path d="M647.3 343.3L693.3 381L668.3 285.7Z" fill="#004fc0" stroke="#004fc0"></path><path d="M708.5 163L670.3 116.7L639.3 184Z" fill="#134b8b" stroke="#134b8b"></path><path d="M639.3 184L670.3 116.7L583.1 125.3Z" fill="#024d99" stroke="#024d99"></path><path d="M708.5 163L640.1 232.7L668.3 285.7Z" fill="#004fb3" stroke="#004fb3"></path><path d="M317.2 140.3L263.9 202L327.2 211Z" fill="#024d99" stroke="#024d99"></path><path d="M314.9 312.7L276.9 377.3L340.2 343.3Z" fill="#024fcc" stroke="#024fcc"></path><path d="M471.6 0L417.4 41.7L490.6 88.7Z" fill="#134b8b" stroke="#134b8b"></path><path d="M744.5 156.3L708.5 163L787.5 231.7Z" fill="#134b8b" stroke="#134b8b"></path><path d="M212.7 282.7L276.9 377.3L314.9 312.7Z" fill="#024fcc" stroke="#024fcc"></path><path d="M670.3 116.7L572.1 36.7L583.1 125.3Z" fill="#2e4462" stroke="#2e4462"></path><path d="M549.8 67.7L471.6 0L490.6 88.7Z" fill="#334155" stroke="#334155"></path><path d="M458.4 515.7L576.8 499.3L500.8 458.7Z" fill="#1d4ed8" stroke="#1d4ed8"></path><path d="M500.8 458.7L576.8 499.3L509.6 422.7Z" fill="#1f497e" stroke="#1f497e"></path><path d="M323.2 55.7L300.9 104.3L317.2 140.3Z" fill="#274770" stroke="#274770"></path><path d="M317.2 140.3L283.9 96.7L263.9 202Z" fill="#004fc0" stroke="#004fc0"></path><path d="M426.4 521.3L462.4 412L374.2 447.7Z" fill="#004ea6" stroke="#004ea6"></path><path d="M426.4 521.3L458.4 515.7L462.4 412Z" fill="#024fcc" stroke="#024fcc"></path><path d="M708.5 163L691.3 106.3L670.3 116.7Z" fill="#334155" stroke="#334155"></path><path d="M670.3 116.7L686.3 0L572.1 36.7Z" fill="#1d4ed8" stroke="#1d4ed8"></path><path d="M276.9 377.3L320.9 462.7L389.2 420Z" fill="#274770" stroke="#274770"></path><path d="M576.8 499.3L674.1 452L557.8 357Z" fill="#1d4ed8" stroke="#1d4ed8"></path><path d="M372.2 502.3L426.4 521.3L374.2 447.7Z" fill="#2e4462" stroke="#2e4462"></path><path d="M549.8 600L592.1 512.7L576.8 499.3Z" fill="#024fcc" stroke="#024fcc"></path><path d="M320.9 462.7L372.2 502.3L374.2 447.7Z" fill="#334155" stroke="#334155"></path><path d="M666.1 525.3L592.1 512.7L657.1 600Z" fill="#004ea6" stroke="#004ea6"></path><path d="M576.8 499.3L592.1 512.7L674.1 452Z" fill="#134b8b" stroke="#134b8b"></path><path d="M563.8 0L471.6 0L549.8 67.7Z" fill="#134b8b" stroke="#134b8b"></path><path d="M323.2 55.7L283.9 96.7L300.9 104.3Z" fill="#274770" stroke="#274770"></path><path d="M323.2 55.7L422.4 148.3L417.4 41.7Z" fill="#134b8b" stroke="#134b8b"></path><path d="M300.9 104.3L283.9 96.7L317.2 140.3Z" fill="#024fcc" stroke="#024fcc"></path><path d="M382.4 0L323.2 55.7L417.4 41.7Z" fill="#1d4ed8" stroke="#1d4ed8"></path><path d="M571.1 0L563.8 0L572.1 36.7Z" fill="#1d4ed8" stroke="#1d4ed8"></path><path d="M572.1 36.7L563.8 0L549.8 67.7Z" fill="#004fb3" stroke="#004fb3"></path><path d="M787.5 231.7L708.5 163L668.3 285.7Z" fill="#1f497e" stroke="#1f497e"></path><path d="M708.5 163L744.5 156.3L691.3 106.3Z" fill="#2e4462" stroke="#2e4462"></path><path d="M686.3 0L571.1 0L572.1 36.7Z" fill="#1d4ed8" stroke="#1d4ed8"></path><path d="M181.5 220.7L212.7 282.7L263.9 202Z" fill="#004ea6" stroke="#004ea6"></path><path d="M263.9 202L212.7 282.7L325.2 263.7Z" fill="#004fb3" stroke="#004fb3"></path><path d="M276.9 377.3L250.7 427L320.9 462.7Z" fill="#024fcc" stroke="#024fcc"></path><path d="M189.5 380.3L243.9 405L276.9 377.3Z" fill="#004ea6" stroke="#004ea6"></path><path d="M344.2 600L426.4 521.3L372.2 502.3Z" fill="#274770" stroke="#274770"></path><path d="M471.6 0L382.4 0L417.4 41.7Z" fill="#1d4ed8" stroke="#1d4ed8"></path><path d="M243.9 405L250.7 427L276.9 377.3Z" fill="#2e4462" stroke="#2e4462"></path><path d="M766.5 469.7L761.5 380L693.3 381Z" fill="#024fcc" stroke="#024fcc"></path><path d="M693.3 381L787.8 345.3L668.3 285.7Z" fill="#004fb3" stroke="#004fb3"></path><path d="M787.8 345.3L787.5 231.7L668.3 285.7Z" fill="#134b8b" stroke="#134b8b"></path><path d="M666.1 525.3L688.3 492.7L674.1 452Z" fill="#004ea6" stroke="#004ea6"></path><path d="M674.1 452L766.5 469.7L693.3 381Z" fill="#274770" stroke="#274770"></path><path d="M807.5 334.3L787.8 345.3L838.8 410Z" fill="#334155" stroke="#334155"></path><path d="M761.5 380L787.8 345.3L693.3 381Z" fill="#2e4462" stroke="#2e4462"></path><path d="M592.1 512.7L666.1 525.3L674.1 452Z" fill="#274770" stroke="#274770"></path><path d="M498.6 584.3L576.8 499.3L458.4 515.7Z" fill="#1d4ed8" stroke="#1d4ed8"></path><path d="M185.5 176.3L181.5 220.7L263.9 202Z" fill="#334155" stroke="#334155"></path><path d="M174.7 339.3L189.5 380.3L276.9 377.3Z" fill="#2e4462" stroke="#2e4462"></path><path d="M243.9 405L189.5 380.3L250.7 427Z" fill="#1d4ed8" stroke="#1d4ed8"></path><path d="M440.4 600L458.4 515.7L426.4 521.3Z" fill="#1d4ed8" stroke="#1d4ed8"></path><path d="M440.4 600L498.6 584.3L458.4 515.7Z" fill="#1d4ed8" stroke="#1d4ed8"></path><path d="M521.6 600L498.6 584.3L440.4 600Z" fill="#004ea6" stroke="#004ea6"></path><path d="M214.7 96.3L185.5 176.3L263.9 202Z" fill="#134b8b" stroke="#134b8b"></path><path d="M214.7 96.3L263.9 202L283.9 96.7Z" fill="#004fb3" stroke="#004fb3"></path><path d="M214.7 96.3L283.9 96.7L206.7 17.7Z" fill="#2e4462" stroke="#2e4462"></path><path d="M174.7 339.3L276.9 377.3L212.7 282.7Z" fill="#004fc0" stroke="#004fc0"></path><path d="M838.8 410L787.8 345.3L761.5 380Z" fill="#2e4462" stroke="#2e4462"></path><path d="M787.8 345.3L815.8 316.7L787.5 231.7Z" fill="#274770" stroke="#274770"></path><path d="M766.5 469.7L674.1 452L688.3 492.7Z" fill="#134b8b" stroke="#134b8b"></path><path d="M269.9 0L283.9 96.7L323.2 55.7Z" fill="#2e4462" stroke="#2e4462"></path><path d="M122.5 219L174.7 339.3L212.7 282.7Z" fill="#004fb3" stroke="#004fb3"></path><path d="M382.4 0L302.2 0L323.2 55.7Z" fill="#1f497e" stroke="#1f497e"></path><path d="M900 226.7L809.8 187L787.5 231.7Z" fill="#1f497e" stroke="#1f497e"></path><path d="M787.5 231.7L809.8 187L744.5 156.3Z" fill="#1f497e" stroke="#1f497e"></path><path d="M804.5 71.7L686.3 0L691.3 106.3Z" fill="#334155" stroke="#334155"></path><path d="M691.3 106.3L686.3 0L670.3 116.7Z" fill="#024fcc" stroke="#024fcc"></path><path d="M807.5 334.3L815.8 316.7L787.8 345.3Z" fill="#1f497e" stroke="#1f497e"></path><path d="M804.5 71.7L691.3 106.3L744.5 156.3Z" fill="#024fcc" stroke="#024fcc"></path><path d="M440.4 600L426.4 521.3L344.2 600Z" fill="#1f497e" stroke="#1f497e"></path><path d="M498.6 584.3L549.8 600L576.8 499.3Z" fill="#024d99" stroke="#024d99"></path><path d="M185.5 176.3L166.7 174L181.5 220.7Z" fill="#004fb3" stroke="#004fb3"></path><path d="M92.2 370.3L143.5 388L174.7 339.3Z" fill="#004fb3" stroke="#004fb3"></path><path d="M214.7 96.3L166.7 174L185.5 176.3Z" fill="#024fcc" stroke="#024fcc"></path><path d="M246.7 505.7L320.9 462.7L250.7 427Z" fill="#024fcc" stroke="#024fcc"></path><path d="M298.9 584.3L372.2 502.3L320.9 462.7Z" fill="#334155" stroke="#334155"></path><path d="M521.6 600L549.8 600L498.6 584.3Z" fill="#004fc0" stroke="#004fc0"></path><path d="M175.7 497.3L246.7 505.7L250.7 427Z" fill="#024d99" stroke="#024d99"></path><path d="M728.3 546.3L688.3 492.7L666.1 525.3Z" fill="#334155" stroke="#334155"></path><path d="M728.3 546.3L766.5 469.7L688.3 492.7Z" fill="#2e4462" stroke="#2e4462"></path><path d="M807.5 334.3L900 360.3L815.8 316.7Z" fill="#1d4ed8" stroke="#1d4ed8"></path><path d="M302.2 0L269.9 0L323.2 55.7Z" fill="#024fcc" stroke="#024fcc"></path><path d="M104.2 172.3L122.5 219L166.7 174Z" fill="#2e4462" stroke="#2e4462"></path><path d="M298.9 584.3L344.2 600L372.2 502.3Z" fill="#334155" stroke="#334155"></path><path d="M681.3 600L728.3 546.3L666.1 525.3Z" fill="#134b8b" stroke="#134b8b"></path><path d="M174.7 339.3L143.5 388L189.5 380.3Z" fill="#004ea6" stroke="#004ea6"></path><path d="M165.5 489.3L175.7 497.3L250.7 427Z" fill="#1d4ed8" stroke="#1d4ed8"></path><path d="M122.5 219L212.7 282.7L181.5 220.7Z" fill="#2e4462" stroke="#2e4462"></path><path d="M844.8 127.3L804.5 71.7L744.5 156.3Z" fill="#274770" stroke="#274770"></path><path d="M844.8 127.3L744.5 156.3L809.8 187Z" fill="#274770" stroke="#274770"></path><path d="M162.5 82.7L166.7 174L214.7 96.3Z" fill="#004fc0" stroke="#004fc0"></path><path d="M166.7 174L122.5 219L181.5 220.7Z" fill="#1f497e" stroke="#1f497e"></path><path d="M302.9 600L298.9 584.3L190.7 600Z" fill="#004ea6" stroke="#004ea6"></path><path d="M246.7 505.7L298.9 584.3L320.9 462.7Z" fill="#274770" stroke="#274770"></path><path d="M549.8 600L657.1 600L592.1 512.7Z" fill="#024fcc" stroke="#024fcc"></path><path d="M825.8 439.7L838.8 410L761.5 380Z" fill="#024fcc" stroke="#024fcc"></path><path d="M900 173L844.8 127.3L809.8 187Z" fill="#274770" stroke="#274770"></path><path d="M825.8 439.7L761.5 380L766.5 469.7Z" fill="#004fc0" stroke="#004fc0"></path><path d="M206.7 17.7L162.5 82.7L214.7 96.3Z" fill="#004fc0" stroke="#004fc0"></path><path d="M813.5 577.3L825.8 439.7L766.5 469.7Z" fill="#004fc0" stroke="#004fc0"></path><path d="M269.9 0L206.7 17.7L283.9 96.7Z" fill="#1d4ed8" stroke="#1d4ed8"></path><path d="M223.7 0L206.7 17.7L269.9 0Z" fill="#004fc0" stroke="#004fc0"></path><path d="M900 226.7L787.5 231.7L815.8 316.7Z" fill="#024fcc" stroke="#024fcc"></path><path d="M190.7 600L298.9 584.3L246.7 505.7Z" fill="#004fb3" stroke="#004fb3"></path><path d="M298.9 584.3L302.9 600L344.2 600Z" fill="#004fc0" stroke="#004fc0"></path><path d="M657.1 600L681.3 600L666.1 525.3Z" fill="#134b8b" stroke="#134b8b"></path><path d="M900 482.7L838.8 410L825.8 439.7Z" fill="#1f497e" stroke="#1f497e"></path><path d="M844.8 127.3L815.8 56.7L804.5 71.7Z" fill="#134b8b" stroke="#134b8b"></path><path d="M804.5 71.7L792.5 0L686.3 0Z" fill="#1d4ed8" stroke="#1d4ed8"></path><path d="M165.5 489.3L250.7 427L189.5 380.3Z" fill="#334155" stroke="#334155"></path><path d="M143.5 388L165.5 489.3L189.5 380.3Z" fill="#004fb3" stroke="#004fb3"></path><path d="M175.7 497.3L190.7 600L246.7 505.7Z" fill="#1f497e" stroke="#1f497e"></path><path d="M104.2 172.3L95.2 228L122.5 219Z" fill="#024fcc" stroke="#024fcc"></path><path d="M122.5 219L77.2 243.7L174.7 339.3Z" fill="#004ea6" stroke="#004ea6"></path><path d="M143.5 388L88.2 420L165.5 489.3Z" fill="#334155" stroke="#334155"></path><path d="M162.5 82.7L104.2 172.3L166.7 174Z" fill="#024fcc" stroke="#024fcc"></path><path d="M846.8 0L792.5 0L815.8 56.7Z" fill="#004fb3" stroke="#004fb3"></path><path d="M815.8 56.7L792.5 0L804.5 71.7Z" fill="#024d99" stroke="#024d99"></path><path d="M900 360.3L900 226.7L815.8 316.7Z" fill="#004ea6" stroke="#004ea6"></path><path d="M844.8 127.3L900 89.3L815.8 56.7Z" fill="#274770" stroke="#274770"></path><path d="M77.2 243.7L92.2 370.3L174.7 339.3Z" fill="#004fb3" stroke="#004fb3"></path><path d="M104.2 172.3L77.2 243.7L95.2 228Z" fill="#004fc0" stroke="#004fc0"></path><path d="M95.2 228L77.2 243.7L122.5 219Z" fill="#1f497e" stroke="#1f497e"></path><path d="M152.5 0L121.2 70.7L162.5 82.7Z" fill="#334155" stroke="#334155"></path><path d="M162.5 82.7L121.2 70.7L104.2 172.3Z" fill="#2e4462" stroke="#2e4462"></path><path d="M0 236L0 287.3L77.2 243.7Z" fill="#004fb3" stroke="#004fb3"></path><path d="M152.5 0L162.5 82.7L206.7 17.7Z" fill="#274770" stroke="#274770"></path><path d="M900 226.7L900 173L809.8 187Z" fill="#024fcc" stroke="#024fcc"></path><path d="M900 369L900 360.3L838.8 410Z" fill="#1d4ed8" stroke="#1d4ed8"></path><path d="M838.8 410L900 360.3L807.5 334.3Z" fill="#134b8b" stroke="#134b8b"></path><path d="M900 369L838.8 410L900 482.7Z" fill="#004ea6" stroke="#004ea6"></path><path d="M813.5 577.3L766.5 469.7L728.3 546.3Z" fill="#1f497e" stroke="#1f497e"></path><path d="M681.3 600L757.5 600L728.3 546.3Z" fill="#024fcc" stroke="#024fcc"></path><path d="M223.7 0L152.5 0L206.7 17.7Z" fill="#274770" stroke="#274770"></path><path d="M63.2 491.3L88.2 420L51.2 467.7Z" fill="#024d99" stroke="#024d99"></path><path d="M92.2 370.3L88.2 420L143.5 388Z" fill="#334155" stroke="#334155"></path><path d="M900 173L900 118.7L844.8 127.3Z" fill="#024fcc" stroke="#024fcc"></path><path d="M900 89.3L846.8 0L815.8 56.7Z" fill="#024d99" stroke="#024d99"></path><path d="M900 118.7L900 89.3L844.8 127.3Z" fill="#004ea6" stroke="#004ea6"></path><path d="M757.5 600L813.5 577.3L728.3 546.3Z" fill="#004ea6" stroke="#004ea6"></path><path d="M85.5 511.7L175.7 497.3L165.5 489.3Z" fill="#1f497e" stroke="#1f497e"></path><path d="M141.5 600L190.7 600L175.7 497.3Z" fill="#004fb3" stroke="#004fb3"></path><path d="M900 519.3L900 482.7L825.8 439.7Z" fill="#1f497e" stroke="#1f497e"></path><path d="M757.5 600L822.8 600L813.5 577.3Z" fill="#004fc0" stroke="#004fc0"></path><path d="M813.5 577.3L900 519.3L825.8 439.7Z" fill="#334155" stroke="#334155"></path><path d="M88.2 420L85.5 511.7L165.5 489.3Z" fill="#004fc0" stroke="#004fc0"></path><path d="M63.2 491.3L85.5 511.7L88.2 420Z" fill="#024fcc" stroke="#024fcc"></path><path d="M870.8 581.3L900 519.3L813.5 577.3Z" fill="#004fb3" stroke="#004fb3"></path><path d="M85.5 511.7L141.5 600L175.7 497.3Z" fill="#1f497e" stroke="#1f497e"></path><path d="M51.2 467.7L88.2 420L0 447.7Z" fill="#334155" stroke="#334155"></path><path d="M85.5 511.7L42.2 600L141.5 600Z" fill="#024fcc" stroke="#024fcc"></path><path d="M0 393L88.2 420L92.2 370.3Z" fill="#134b8b" stroke="#134b8b"></path><path d="M900 89.3L900 0L846.8 0Z" fill="#004fb3" stroke="#004fb3"></path><path d="M77.2 243.7L0 291.7L92.2 370.3Z" fill="#024d99" stroke="#024d99"></path><path d="M0 236L77.2 243.7L0 155.3Z" fill="#274770" stroke="#274770"></path><path d="M77.2 243.7L104.2 172.3L0 155.3Z" fill="#004ea6" stroke="#004ea6"></path><path d="M0 287.3L0 291.7L77.2 243.7Z" fill="#1f497e" stroke="#1f497e"></path><path d="M0 155.3L104.2 172.3L0 87.7Z" fill="#004ea6" stroke="#004ea6"></path><path d="M822.8 600L870.8 581.3L813.5 577.3Z" fill="#004ea6" stroke="#004ea6"></path><path d="M0 87.7L104.2 172.3L121.2 70.7Z" fill="#024fcc" stroke="#024fcc"></path><path d="M0 291.7L0 393L92.2 370.3Z" fill="#134b8b" stroke="#134b8b"></path><path d="M51.2 467.7L0 500.3L63.2 491.3Z" fill="#1d4ed8" stroke="#1d4ed8"></path><path d="M152.5 0L57.2 0L121.2 70.7Z" fill="#2e4462" stroke="#2e4462"></path><path d="M57.2 0L0 87.7L121.2 70.7Z" fill="#1d4ed8" stroke="#1d4ed8"></path><path d="M0 393L0 447.7L88.2 420Z" fill="#334155" stroke="#334155"></path><path d="M63.2 491.3L0 500.3L85.5 511.7Z" fill="#334155" stroke="#334155"></path><path d="M822.8 600L900 600L870.8 581.3Z" fill="#004ea6" stroke="#004ea6"></path><path d="M870.8 581.3L900 600L900 519.3Z" fill="#024d99" stroke="#024d99"></path><path d="M0 447.7L0 500.3L51.2 467.7Z" fill="#004fb3" stroke="#004fb3"></path><path d="M57.2 0L0 0L0 87.7Z" fill="#1d4ed8" stroke="#1d4ed8"></path><path d="M0 500.3L42.2 600L85.5 511.7Z" fill="#024d99" stroke="#024d99"></path><path d="M0 500.3L0 600L42.2 600Z" fill="#004fb3" stroke="#004fb3"></path></g></svg>