<svg id="visual" viewBox="0 0 900 600" width="900" height="600" xmlns="http://www.w3.org/2000/svg" xmlns:xlink="http://www.w3.org/1999/xlink" version="1.1"><path d="M0 497L25 499.5C50 502 100 507 150 495.2C200 483.3 250 454.7 300 458.8C350 463 400 500 450 503.7C500 507.3 550 477.7 600 477.3C650 477 700 506 750 518.5C800 531 850 527 875 525L900 523L900 601L875 601C850 601 800 601 750 601C700 601 650 601 600 601C550 601 500 601 450 601C400 601 350 601 300 601C250 601 200 601 150 601C100 601 50 601 25 601L0 601Z" fill="#334155" stroke-linecap="round" stroke-linejoin="miter"></path></svg>